<svg width="874" height="874" viewBox="0 0 874 874" fill="none" xmlns="http://www.w3.org/2000/svg">
<g clip-path="url(#clip0_440_2)">
<path d="M-1 126.996C-1 56.8579 55.8579 0 125.996 0H747.004C817.142 0 874 56.8579 874 126.996V748.004C874 818.142 817.142 875 747.004 875H125.996C55.8579 875 -1 818.142 -1 748.004V126.996Z" fill="url(#paint0_linear_440_2)"/>
<path fill-rule="evenodd" clip-rule="evenodd" d="M747.418 103.693H125.582C112.941 103.693 102.693 113.941 102.693 126.582V748.418C102.693 761.059 112.941 771.307 125.582 771.307H747.418C760.059 771.307 770.307 761.059 770.307 748.418V126.582C770.307 113.941 760.059 103.693 747.418 103.693ZM125.582 63C90.4668 63 62 91.4668 62 126.582V748.418C62 783.533 90.4668 812 125.582 812H747.418C782.533 812 811 783.533 811 748.418V126.582C811 91.4668 782.533 63 747.418 63H125.582Z" fill="black"/>
<path d="M457 270.707L485.708 242L513.992 270.284L457.284 326.992L457 326.708V356.427C464.977 358.4 472.499 361.527 479.379 365.62L543.868 301.132L572.152 329.416L507.839 393.729C512.198 400.849 515.514 408.676 517.573 417H547.016L546.724 416.708L603.432 360L631.716 388.284L602.999 417H642V457H603.292L632 485.708L603.716 513.992L547.008 457.284L547.292 457H517.573C515.54 465.219 512.282 472.955 508.004 480.004L571.868 543.868L543.584 572.152L479.648 508.217C472.695 512.39 465.081 515.573 457 517.572V547.284L457.284 547L513.992 603.708L485.708 631.992L457 603.284V642H417V603.561L388.284 632.276L360 603.992L416.708 547.284L417 547.576V517.572C408.676 515.513 400.849 512.198 393.729 507.839L329.284 572.284L301 544L365.62 479.379C361.527 472.499 358.4 464.977 356.427 457H326.716L327 457.284L270.292 513.992L242.008 485.708L270.716 457H232V417H270.439L241.724 388.284L270.008 360L326.716 416.708L326.424 417H356.427C358.426 408.918 361.609 401.304 365.782 394.351L300.716 329.284L329 301L393.995 365.995C401.044 361.717 408.781 358.46 417 356.427V326.983L416.708 327.276L360 270.568L388.284 242.284L417 271V232H457V270.707ZM437 394C413.252 394 394 413.252 394 437C394 460.748 413.252 480 437 480C460.748 480 480 460.748 480 437C480 413.252 460.748 394 437 394Z" fill="black"/>
</g>
<defs>
<linearGradient id="paint0_linear_440_2" x1="64" y1="875" x2="824" y2="-2.68647e-06" gradientUnits="userSpaceOnUse">
<stop stop-color="#B6D0F7"/>
<stop offset="0.14" stop-color="#EEF4E1"/>
<stop offset="0.28" stop-color="#FAFCFE"/>
<stop offset="0.42" stop-color="#E2C1F9"/>
<stop offset="0.57" stop-color="#BFD1F9"/>
<stop offset="0.71" stop-color="#FAFCFE"/>
<stop offset="0.85" stop-color="#BAE4E2"/>
<stop offset="1" stop-color="#8C6BE3"/>
</linearGradient>
<clipPath id="clip0_440_2">
<rect width="874" height="874" fill="white"/>
</clipPath>
</defs>
</svg>
